<svg xmlns="http://www.w3.org/2000/svg" viewBox="0 0 779.13 779.13"><defs><style>.cls-1{fill:#04a59b;}</style></defs><g id="Artwork"><path class="cls-1" d="M101.5,59.84a41.79,41.79,0,0,0-41.73,41.74V678a41.84,41.84,0,0,0,35.54,41.28H107.7A41.84,41.84,0,0,0,143.24,678V101.58A41.79,41.79,0,0,0,101.5,59.84Z"/><path class="cls-1" d="M101.5,47.32a54.31,54.31,0,0,0-54.25,54.26V678A54.4,54.4,0,0,0,94,731.75l14.56.06.42-.06A54.4,54.4,0,0,0,155.76,678V101.58A54.32,54.32,0,0,0,101.5,47.32ZM149.5,678a48,48,0,0,1-41.36,47.54H94.87A48,48,0,0,1,53.51,678V101.58a48,48,0,1,1,96,0Z"/><path class="cls-1" d="M101.5,53.58a48,48,0,0,0-48,48V678a48,48,0,0,0,41.36,47.54h13.27A48,48,0,0,0,149.5,678V101.58A48,48,0,0,0,101.5,53.58ZM143.24,678a41.84,41.84,0,0,1-35.54,41.28H95.31A41.84,41.84,0,0,1,59.77,678V101.58a41.74,41.74,0,1,1,83.47,0Z"/><path class="cls-1" d="M293.66,348.08a41.79,41.79,0,0,0-41.74,41.74V678a41.85,41.85,0,0,0,35.55,41.28h12.38a42,42,0,0,0,35.38-37.62V386.16A41.94,41.94,0,0,0,293.66,348.08Z"/><path class="cls-1" d="M293.66,335.56a54.34,54.34,0,0,0-53.9,48h-.52V678l.16,6.26h.36a54.45,54.45,0,0,0,46.41,47.48l14.56.06.42-.06a54.55,54.55,0,0,0,46.58-49.3l0-296.56,0-.5A54.52,54.52,0,0,0,293.66,335.56Zm47.83,346.38a48,48,0,0,1-41.19,43.61H287A48,48,0,0,1,245.66,678h-.16V389.82h.16a48,48,0,0,1,95.83-3.93Z"/><path class="cls-1" d="M293.66,341.82a48,48,0,0,0-48,48h-.16V678h.16A48,48,0,0,0,287,725.55H300.3a48,48,0,0,0,41.19-43.61V385.89A48,48,0,0,0,293.66,341.82Zm41.57,339.85a42,42,0,0,1-35.38,37.62H287.47A41.85,41.85,0,0,1,251.92,678V389.82a41.74,41.74,0,0,1,83.31-3.66Z"/><path class="cls-1" d="M485.78,348.08A41.78,41.78,0,0,0,444,389.82v6.26h-.29V671.75L444,678a41.87,41.87,0,0,0,35.59,41.28h12.3a41.58,41.58,0,0,0,35.29-36.41v-298A41.59,41.59,0,0,0,485.78,348.08Z"/><path class="cls-1" d="M485.78,335.56a54.34,54.34,0,0,0-53.9,48h-.65V678l.29,6.26h.36a54.47,54.47,0,0,0,46.45,47.48l14.47.06.42,0a54.1,54.1,0,0,0,46.49-47.85l0-299.35,0-.67A54.1,54.1,0,0,0,485.78,335.56Zm47.7,347.67a48,48,0,0,1-41.11,42.32H479.18A48,48,0,0,1,437.78,678h-.29V389.82h.29a48,48,0,0,1,95.7-5.26Z"/><path class="cls-1" d="M485.78,341.82a48,48,0,0,0-48,48h-.29V678h.29a48,48,0,0,0,41.4,47.54h13.19a48,48,0,0,0,41.11-42.32V384.56A48,48,0,0,0,485.78,341.82Zm41.44,341.06a41.58,41.58,0,0,1-35.29,36.41h-12.3A41.87,41.87,0,0,1,444,678l-.29-6.26V396.08H444v-6.26a41.73,41.73,0,0,1,83.18-4.91Z"/><path class="cls-1" d="M677.92,348.08a41.79,41.79,0,0,0-41.74,41.74v6.26h-.29V671.75l.29,6.26a41.87,41.87,0,0,0,35.59,41.28h12.31a41.58,41.58,0,0,0,35.29-36.41v-298A41.61,41.61,0,0,0,677.92,348.08Z"/><path class="cls-1" d="M731.85,383.89A54.26,54.26,0,0,0,624,383.56h-.65V678l.29,6.26H624a54.46,54.46,0,0,0,46.44,47.48l14.47.06.42,0a54.09,54.09,0,0,0,46.49-47.85l0-299.35Zm-6.22,299.34a48,48,0,0,1-41.11,42.32H671.33A48,48,0,0,1,629.92,678h-.29V389.82h.29a48,48,0,0,1,95.71-5.26Z"/><path class="cls-1" d="M677.92,341.82a48,48,0,0,0-48,48h-.29V678h.29a48,48,0,0,0,41.41,47.54h13.19a48,48,0,0,0,41.11-42.32V384.56A48,48,0,0,0,677.92,341.82Zm41.45,341.06a41.58,41.58,0,0,1-35.29,36.41H671.77A41.87,41.87,0,0,1,636.18,678l-.29-6.26V396.08h.29v-6.26a41.74,41.74,0,0,1,83.19-4.91Z"/></g></svg>